<mxfile host="app.diagrams.net" modified="2025-09-15T00:00:00.000Z" agent="AI" version="24.7.8" type="device">
  <diagram id="ERD" name="ER Diagram">
    <mxGraphModel dx="1480" dy="914" grid="1" gridSize="10" guides="1" tooltips="1" connect="1" arrows="1" fold="1" page="1" pageScale="1" pageWidth="1920" pageHeight="1080" math="0" shadow="0">
      <root>
        <mxCell id="0"/>
        <mxCell id="1" parent="0"/>

        <!-- USERS table -->
        <mxCell id="users" value="&lt;b&gt;USERS&lt;/b&gt;&lt;br/&gt;id: UUID (PK)&lt;br/&gt;username: varchar(50) UNIQUE NOT NULL&lt;br/&gt;created_at: timestamp" style="shape=rectangle;whiteSpace=wrap;html=1;rounded=1;glass=0;fillColor=#dae8fc;strokeColor=#6c8ebf;shadow=0;align=left;verticalAlign=top;spacingTop=8;spacingLeft=8;spacingRight=8;spacingBottom=8;" vertex="1" parent="1">
          <mxGeometry x="80" y="80" width="280" height="140" as="geometry"/>
        </mxCell>

        <!-- ACCOUNTS table -->
        <mxCell id="accounts" value="&lt;b&gt;ACCOUNTS&lt;/b&gt;&lt;br/&gt;user_id: UUID (PK, FK → users.id)&lt;br/&gt;password_hash: text NOT NULL&lt;br/&gt;created_at: timestamp" style="shape=rectangle;whiteSpace=wrap;html=1;rounded=1;glass=0;fillColor=#dae8fc;strokeColor=#6c8ebf;shadow=0;align=left;verticalAlign=top;spacingTop=8;spacingLeft=8;spacingRight=8;spacingBottom=8;" vertex="1" parent="1">
          <mxGeometry x="80" y="300" width="280" height="140" as="geometry"/>
        </mxCell>

        <!-- NOTES table -->
        <mxCell id="notes" value="&lt;b&gt;NOTES&lt;/b&gt;&lt;br/&gt;id: UUID (PK)&lt;br/&gt;title: varchar(255) NOT NULL&lt;br/&gt;body: text NOT NULL&lt;br/&gt;owner_id: UUID (FK → users.id) NOT NULL&lt;br/&gt;created_at: timestamp&lt;br/&gt;updated_at: timestamp" style="shape=rectangle;whiteSpace=wrap;html=1;rounded=1;glass=0;fillColor=#ffe6cc;strokeColor=#d79b00;shadow=0;align=left;verticalAlign=top;spacingTop=8;spacingLeft=8;spacingRight=8;spacingBottom=8;" vertex="1" parent="1">
          <mxGeometry x="430" y="80" width="300" height="170" as="geometry"/>
        </mxCell>

        <!-- NOTES_SHARED table -->
        <mxCell id="notes_shared" value="&lt;b&gt;NOTES_SHARED&lt;/b&gt;&lt;br/&gt;note_id: UUID (PK, FK → notes.id)&lt;br/&gt;user_id: UUID (PK, FK → users.id)" style="shape=rectangle;whiteSpace=wrap;html=1;rounded=1;glass=0;fillColor=#ffe6cc;strokeColor=#d79b00;shadow=0;align=left;verticalAlign=top;spacingTop=8;spacingLeft=8;spacingRight=8;spacingBottom=8;" vertex="1" parent="1">
          <mxGeometry x="430" y="300" width="300" height="110" as="geometry"/>
        </mxCell>

        <!-- TAGS table -->
        <mxCell id="tags" value="&lt;b&gt;TAGS&lt;/b&gt;&lt;br/&gt;id: UUID (PK)&lt;br/&gt;name: varchar(50) UNIQUE NOT NULL&lt;br/&gt;created_at: timestamp" style="shape=rectangle;whiteSpace=wrap;html=1;rounded=1;glass=0;fillColor=#e1d5e7;strokeColor=#9673a6;shadow=0;align=left;verticalAlign=top;spacingTop=8;spacingLeft=8;spacingRight=8;spacingBottom=8;" vertex="1" parent="1">
          <mxGeometry x="780" y="80" width="280" height="140" as="geometry"/>
        </mxCell>

        <!-- NOTES_TAGS table -->
        <mxCell id="notes_tags" value="&lt;b&gt;NOTES_TAGS&lt;/b&gt;&lt;br/&gt;note_id: UUID (PK, FK → notes.id)&lt;br/&gt;tag_id: UUID (PK, FK → tags.id)" style="shape=rectangle;whiteSpace=wrap;html=1;rounded=1;glass=0;fillColor=#e1d5e7;strokeColor=#9673a6;shadow=0;align=left;verticalAlign=top;spacingTop=8;spacingLeft=8;spacingRight=8;spacingBottom=8;" vertex="1" parent="1">
          <mxGeometry x="780" y="300" width="280" height="110" as="geometry"/>
        </mxCell>

        <!-- USERS to ACCOUNTS: 1 - 1 -->
        <mxCell id="edge_users_accounts" value="1 — 1" style="edgeStyle=orthogonalEdgeStyle;rounded=0;orthogonalLoop=1;jettySize=auto;html=1;endArrow=block;endFill=1;strokeColor=#6c8ebf;" edge="1" parent="1" source="users" target="accounts">
          <mxGeometry relative="1" as="geometry"/>
        </mxCell>

        <!-- USERS to NOTES (owns): 1 - N -->
        <mxCell id="edge_users_notes" value="1 — N (owns)" style="edgeStyle=orthogonalEdgeStyle;rounded=0;orthogonalLoop=1;jettySize=auto;html=1;endArrow=block;endFill=1;strokeColor=#6c8ebf;" edge="1" parent="1" source="users" target="notes">
          <mxGeometry relative="1" as="geometry"/>
        </mxCell>

        <!-- NOTES_SHARED edges: NOTES and USERS (M2M via bridge) -->
        <mxCell id="edge_notes_notesshared" value="1 — N" style="edgeStyle=orthogonalEdgeStyle;rounded=0;orthogonalLoop=1;jettySize=auto;html=1;endArrow=block;endFill=1;strokeColor=#d79b00;" edge="1" parent="1" source="notes" target="notes_shared">
          <mxGeometry relative="1" as="geometry"/>
        </mxCell>
        <mxCell id="edge_users_notesshared" value="1 — N" style="edgeStyle=orthogonalEdgeStyle;rounded=0;orthogonalLoop=1;jettySize=auto;html=1;endArrow=block;endFill=1;strokeColor=#6c8ebf;" edge="1" parent="1" source="users" target="notes_shared">
          <mxGeometry relative="1" as="geometry"/>
        </mxCell>

        <!-- NOTES_TAGS edges: NOTES and TAGS (M2M via bridge) -->
        <mxCell id="edge_notes_notestags" value="1 — N" style="edgeStyle=orthogonalEdgeStyle;rounded=0;orthogonalLoop=1;jettySize=auto;html=1;endArrow=block;endFill=1;strokeColor=#d79b00;" edge="1" parent="1" source="notes" target="notes_tags">
          <mxGeometry relative="1" as="geometry"/>
        </mxCell>
        <mxCell id="edge_tags_notestags" value="1 — N" style="edgeStyle=orthogonalEdgeStyle;rounded=0;orthogonalLoop=1;jettySize=auto;html=1;endArrow=block;endFill=1;strokeColor=#9673a6;" edge="1" parent="1" source="tags" target="notes_tags">
          <mxGeometry relative="1" as="geometry"/>
        </mxCell>

      </root>
    </mxGraphModel>
  </diagram>
</mxfile>


